<svg xmlns="http://www.w3.org/2000/svg" width="1440" height="772" fill="none" viewBox="0 0 1440 772"><g clip-path="url(#a)"><g filter="url(#b)"><path fill="color(display-p3 .3255 .3255 .3255)" fill-opacity=".07" d="M2078.68 1723.37c36.22 3.96 44.86.57 72.41-20.26 82.14-62.07 163.03-136.04 243.42-201.57 135.37-110.32 279.18-218.7 410.58-332.8 48.89-42.43 65.31-71.79 87.75-132.15 88.03-236.895 152.4-486.868 238.73-724.889 6.55-25.634 10.19-49.303 3.33-75.54-141.12-219.91-294.46-431.641-441.54-647.567-349.03-512.423-692.92-1028.384-1045.87-1538.104-19.61-20.71-33.83-37.75-64.07-40.63-40.12-3.8-96.94 4.22-138.5 5.29-53.78 1.42-182.56 5.8-182.56 5.8s-30.43 26.81-37.84 56.4c-38.99 155.69-71.85 313.33-109.27 469.47C972.303-856.965 825.613-261.637 675.099 332.591c-10.395 59.236 4.583 89.064 29.38 139.546 78.085 158.969 167.979 319.38 252.06 475.807 69.651 129.616 139.251 270.186 214.511 395.526 16.71 27.81 32.99 48.38 63.26 62.38 82.72 38.19 184.84 71.9 271.36 105.47 189.69 73.6 380.19 148.04 573.01 212.05Z"/></g><g filter="url(#c)"><path fill="color(display-p3 .3255 .3255 .3255)" fill-opacity=".07" d="M1773.96 1365.64c8.27-35.51 5.95-44.5-11.41-74.37-51.72-89.07-115.38-178.32-170.73-266.05-93.19-147.755-183.45-303.652-280.86-447.902-36.22-53.668-63.37-73.504-120.56-103.044-224.415-115.896-464.648-209.842-690.389-324.182-24.642-9.58-47.683-16.037-74.531-12.368C190.415 251.553-38.005 378.513-269.835 498.752-819.997 784.071-1373.05 1063.87-1921.01 1353.41c-22.89 17.01-41.5 29.09-47.98 58.79-8.59 39.41-7.45 96.83-11.37 138.25-5.05 53.61-16.16 182.1-16.16 182.1s22.95 33.45 51.41 44.36c149.76 57.42 302.18 108.99 452.57 164.9 574.251 213.57 1147.173 430.75 1718.545 651.6 57.511 17.44 88.895 6.14 141.945-12.45 167.054-58.51 336.955-128.59 502.207-193.36 136.923-53.66 284.713-105.95 418.063-165.69 29.59-13.26 51.96-26.98 69.47-55.38 47.81-77.61 93.5-175.03 137.18-256.97 95.77-179.65 192.46-360 279.09-543.92Z"/></g><g filter="url(#d)"><path fill="color(display-p3 .3255 .3255 .3255)" fill-opacity=".08" d="M870.457 2561.29c18.489 31.42 26.365 36.33 59.526 45.96 98.827 28.77 206.437 49.42 306.987 74.71 169.3 42.61 342.1 93.15 512.05 130.31 63.21 13.84 96.54 9.45 158.3-8.65 242.35-71.06 481.01-168.93 723.24-242.03 24.44-10.08 45.57-21.32 62.48-42.51 91.7-244.71 169.54-494.34 254.48-741.46 201.59-586.43 409.09-1170.85 606.17-1758.812 4.85-28.116 9.99-49.71-5.79-75.694-20.95-34.452-61.35-75.234-87.06-107.926-33.3-42.296-113.83-142.976-113.83-142.976s-39.67-8.371-67.79 3.383c-148 61.838-293.88 129.752-441.29 193.117-562.92 241.913-1127.36 480.29-1693.22 714.942-53.65 27.089-68.58 56.942-94.17 107.025-80.598 157.707-155.287 325.751-230.263 486.751-62.132 133.38-133.07 273.28-188.43 408.61-12.278 30.03-19.013 55.4-12.118 88.05 18.891 89.2 52.975 191.27 77.83 280.75 54.508 196.17 108.829 393.5 172.898 586.45Z"/></g></g><defs><filter id="b" width="2467.32" height="3716.46" x="671.266" y="-1991.65" color-interpolation-filters="sRGB" filterUnits="userSpaceOnUse"><feFlood flood-opacity="0" result="BackgroundImageFix"/><feBlend in="SourceGraphic" in2="BackgroundImageFix" result="shape"/><feColorMatrix in="SourceAlpha" result="hardAlpha" values="0 0 0 0 0 0 0 0 0 0 0 0 0 0 0 0 0 0 127 0"/><feOffset dx="-.49" dy="-.49"/><feGaussianBlur stdDeviation=".245"/><feComposite in2="hardAlpha" k2="-1" k3="1" operator="arithmetic"/><feColorMatrix values="0 0 0 0 1 0 0 0 0 1 0 0 0 0 1 0 0 0 0.5 0"/><feBlend in2="shape" result="effect1_innerShadow_844_15"/><feColorMatrix in="SourceAlpha" result="hardAlpha" values="0 0 0 0 0 0 0 0 0 0 0 0 0 0 0 0 0 0 127 0"/><feOffset dx=".88" dy=".496"/><feComposite in2="hardAlpha" k2="-1" k3="1" operator="arithmetic"/><feColorMatrix values="0 0 0 0 0.202806 0 0 0 0 0.202806 0 0 0 0 0.202806 0 0 0 1 0"/><feBlend in2="effect1_innerShadow_844_15" result="effect2_innerShadow_844_15"/></filter><filter id="c" width="3776.8" height="2470.79" x="-1997.01" y="136.191" color-interpolation-filters="sRGB" filterUnits="userSpaceOnUse"><feFlood flood-opacity="0" result="BackgroundImageFix"/><feBlend in="SourceGraphic" in2="BackgroundImageFix" result="shape"/><feColorMatrix in="SourceAlpha" result="hardAlpha" values="0 0 0 0 0 0 0 0 0 0 0 0 0 0 0 0 0 0 127 0"/><feOffset dx="-.49" dy="-.49"/><feGaussianBlur stdDeviation=".245"/><feComposite in2="hardAlpha" k2="-1" k3="1" operator="arithmetic"/><feColorMatrix values="0 0 0 0 1 0 0 0 0 1 0 0 0 0 1 0 0 0 0.5 0"/><feBlend in2="shape" result="effect1_innerShadow_844_15"/><feColorMatrix in="SourceAlpha" result="hardAlpha" values="0 0 0 0 0 0 0 0 0 0 0 0 0 0 0 0 0 0 127 0"/><feOffset dx="2.115" dy=".49"/><feComposite in2="hardAlpha" k2="-1" k3="1" operator="arithmetic"/><feColorMatrix values="0 0 0 0 0.202806 0 0 0 0 0.202806 0 0 0 0 0.202806 0 0 0 1 0"/><feBlend in2="effect1_innerShadow_844_15" result="effect2_innerShadow_844_15"/><feColorMatrix in="SourceAlpha" result="hardAlpha" values="0 0 0 0 0 0 0 0 0 0 0 0 0 0 0 0 0 0 127 0"/><feOffset dx="1.226" dy="3.678"/><feGaussianBlur stdDeviation="3.065"/><feComposite in2="hardAlpha" k2="-1" k3="1" operator="arithmetic"/><feColorMatrix values="0 0 0 0 0.184777 0 0 0 0 0.184777 0 0 0 0 0.184777 0 0 0 0.25 0"/><feBlend in2="effect2_innerShadow_844_15" result="effect3_innerShadow_844_15"/><feColorMatrix in="SourceAlpha" result="hardAlpha" values="0 0 0 0 0 0 0 0 0 0 0 0 0 0 0 0 0 0 127 0"/><feOffset dy="4.904"/><feGaussianBlur stdDeviation="2.452"/><feComposite in2="hardAlpha" k2="-1" k3="1" operator="arithmetic"/><feColorMatrix values="0 0 0 0 0 0 0 0 0 0 0 0 0 0 0 0 0 0 0.45 0"/><feBlend in2="effect3_innerShadow_844_15" result="effect4_innerShadow_844_15"/></filter><filter id="d" width="2941.57" height="3136" x="616.965" y="-310.678" color-interpolation-filters="sRGB" filterUnits="userSpaceOnUse"><feFlood flood-opacity="0" result="BackgroundImageFix"/><feBlend in="SourceGraphic" in2="BackgroundImageFix" result="shape"/><feColorMatrix in="SourceAlpha" result="hardAlpha" values="0 0 0 0 0 0 0 0 0 0 0 0 0 0 0 0 0 0 127 0"/><feOffset dy="4.904"/><feGaussianBlur stdDeviation="2.452"/><feComposite in2="hardAlpha" k2="-1" k3="1" operator="arithmetic"/><feColorMatrix values="0 0 0 0 0 0 0 0 0 0 0 0 0 0 0 0 0 0 0.55 0"/><feBlend in2="shape" result="effect1_innerShadow_844_15"/></filter><clipPath id="a"><path fill="#fff" d="M0 0h1440v772H0z"/></clipPath></defs></svg>